# xmcd
#
# Track frame offsets:
#	150
#	16162
#	29567
#	39750
#	59371
#	77070
#	90863
#	107623
#	123813
#	139320
#
# Disc length: 2096 seconds
#
# Revision: 0
# Processed by: cddbd v1.4PL0 Copyright (c) Steve Scherf et al.
# Submitted via: dBpowerAMP V4.0
#
DISCID=6f082e0a
DTITLE=Various Artistis - The Best of Country - Vol. 2
DYEAR=2001
DGENRE=Country
TTITLE0=My Maria - Nashiville
TTITLE1=Come On Over - Allisun Tramp
TTITLE2=Long Neck Bottle - Shawn Munyon
TTITLE3=You Win My Love - Allisun Tramp
TTITLE4=Man ! I Feel Like a Woman - Allisun Tramp
TTITLE5=Daddy's Money - Nashiville
TTITLE6=The Dance - Shawn Munyon
TTITLE7=You're Still The One - Allisun Tramp 
TTITLE8=I Like It, I Love It - Nashiville
TTITLE9=It's Your Song - Shawn Munyon
EXTD=
EXTT0=
EXTT1=
EXTT2=
EXTT3=
EXTT4=
EXTT5=
EXTT6=
EXTT7=
EXTT8=
EXTT9=
PLAYORDER=
